<svg fill="#FF8810" height="200px" width="49px" version="1.1" id="Capa_1" xmlns="http://www.w3.org/2000/svg" xmlns:xlink="http://www.w3.org/1999/xlink" viewBox="0 0 59.00 59.00" xml:space="preserve" stroke="#FF8810" stroke-width="0.5309999999999999"><g id="SVGRepo_bgCarrier" stroke-width="0"></g><g id="SVGRepo_tracerCarrier" stroke-linecap="round" stroke-linejoin="round"></g><g id="SVGRepo_iconCarrier"> 
<g> <path d="M49,25.962H35.144H6c-0.552,0-1,0.447-1,1s0.448,1,1,1h28.651l6.628,8.61c0.189,0.245,0.482,0.39,0.792,0.39 s0.603-0.145,0.792-0.39l6.628-8.61H53c0.552,0,1-0.447,1-1s-0.448-1-1-1H49z"></path> <path d="M5.627,23.962h47.745c0.305,0,0.592-0.139,0.782-0.377s0.261-0.55,0.192-0.847C51.674,11.094,41.457,2.962,29.5,2.962 S7.326,11.094,4.653,22.738c-0.068,0.297,0.002,0.608,0.192,0.847S5.323,23.962,5.627,23.962z M41.168,14.407 c0.306-0.46,0.926-0.584,1.387-0.277l3,2c0.459,0.307,0.583,0.927,0.277,1.387c-0.193,0.289-0.51,0.445-0.833,0.445 c-0.19,0-0.383-0.055-0.554-0.168l-3-2C40.986,15.487,40.862,14.867,41.168,14.407z M35.105,17.515l1-2 c0.247-0.494,0.846-0.693,1.342-0.447c0.494,0.247,0.694,0.848,0.447,1.342l-1,2c-0.175,0.351-0.528,0.553-0.896,0.553 c-0.15,0-0.303-0.034-0.446-0.105C35.059,18.609,34.858,18.009,35.105,17.515z M32.553,10.067c0.495-0.245,1.095-0.046,1.342,0.447 l1,2c0.247,0.494,0.047,1.095-0.447,1.342c-0.144,0.071-0.296,0.105-0.446,0.105c-0.367,0-0.72-0.202-0.896-0.553l-1-2 C31.858,10.915,32.059,10.314,32.553,10.067z M26.105,9.515l1-2c0.247-0.493,0.847-0.692,1.342-0.447 c0.494,0.247,0.694,0.848,0.447,1.342l-1,2c-0.175,0.351-0.528,0.553-0.896,0.553c-0.15,0-0.303-0.034-0.446-0.105 C26.059,10.609,25.858,10.009,26.105,9.515z M25.105,18.515l1-2c0.247-0.493,0.846-0.693,1.342-0.447 c0.494,0.247,0.694,0.848,0.447,1.342l-1,2c-0.175,0.351-0.528,0.553-0.896,0.553c-0.15,0-0.303-0.034-0.446-0.105 C25.059,19.609,24.858,19.009,25.105,18.515z M19.553,12.067c0.495-0.246,1.095-0.047,1.342,0.447l1,2 c0.247,0.494,0.047,1.095-0.447,1.342c-0.144,0.071-0.296,0.105-0.446,0.105c-0.367,0-0.72-0.202-0.896-0.553l-1-2 C18.858,12.915,19.059,12.314,19.553,12.067z M14.105,18.515l1-2c0.247-0.493,0.846-0.693,1.342-0.447 c0.494,0.247,0.694,0.848,0.447,1.342l-1,2c-0.175,0.351-0.528,0.553-0.896,0.553c-0.15,0-0.303-0.034-0.446-0.105 C14.059,19.609,13.858,19.009,14.105,18.515z"></path> <path d="M52.973,41.962H6c-0.321,0-0.623,0.154-0.811,0.414c-0.188,0.261-0.24,0.596-0.139,0.9l2.524,7.619 c1.018,3.076,3.88,5.143,7.121,5.143h29.6c3.247,0,6.11-2.072,7.125-5.157l2.503-7.606c0.101-0.305,0.048-0.639-0.14-0.898 S53.294,41.962,52.973,41.962z M18.832,49.517c-0.193,0.289-0.51,0.445-0.833,0.445c-0.19,0-0.383-0.055-0.554-0.168l-3-2 c-0.459-0.307-0.583-0.927-0.277-1.387c0.307-0.46,0.926-0.584,1.387-0.277l3,2C19.014,48.437,19.138,49.057,18.832,49.517z M24.895,47.409l-1,2c-0.175,0.351-0.528,0.553-0.896,0.553c-0.15,0-0.303-0.034-0.446-0.105c-0.494-0.247-0.694-0.848-0.447-1.342 l1-2c0.247-0.494,0.846-0.693,1.342-0.447C24.941,46.314,25.142,46.915,24.895,47.409z M29.447,52.856 c-0.144,0.071-0.296,0.105-0.446,0.105c-0.367,0-0.72-0.202-0.896-0.553l-1-2c-0.247-0.494-0.047-1.095,0.447-1.342 c0.496-0.246,1.095-0.047,1.342,0.447l1,2C30.142,52.009,29.941,52.609,29.447,52.856z M34.895,46.409l-1,2 c-0.175,0.351-0.528,0.553-0.896,0.553c-0.15,0-0.303-0.034-0.446-0.105c-0.494-0.247-0.694-0.848-0.447-1.342l1-2 c0.247-0.493,0.846-0.692,1.342-0.447C34.941,45.314,35.142,45.915,34.895,46.409z M40.447,51.856 c-0.144,0.071-0.296,0.105-0.446,0.105c-0.367,0-0.72-0.202-0.896-0.553l-1-2c-0.247-0.494-0.047-1.095,0.447-1.342 c0.496-0.245,1.094-0.046,1.342,0.447l1,2C41.142,51.009,40.941,51.609,40.447,51.856z M45.895,46.409l-1,2 c-0.175,0.351-0.528,0.553-0.896,0.553c-0.15,0-0.303-0.034-0.446-0.105c-0.494-0.247-0.694-0.848-0.447-1.342l1-2 c0.247-0.493,0.847-0.692,1.342-0.447C45.941,45.314,46.142,45.915,45.895,46.409z"></path> <path d="M54,29.962h-3.523l-6.028,7.83c-0.567,0.733-1.455,1.17-2.377,1.17s-1.811-0.437-2.375-1.167l-6.03-7.833H5 c-2.757,0-5,2.243-5,5s2.243,5,5,5h49c2.757,0,5-2.243,5-5S56.757,29.962,54,29.962z M35.707,35.669 c-0.59,0.59-1.374,0.915-2.207,0.915s-1.617-0.325-2.207-0.915c-0.438-0.438-1.148-0.438-1.586,0c-1.217,1.217-3.197,1.217-4.414,0 c-0.425-0.424-1.161-0.424-1.586,0c-1.217,1.217-3.197,1.217-4.414,0c-0.425-0.424-1.161-0.424-1.586,0 c-1.217,1.217-3.197,1.217-4.414,0c-0.438-0.438-1.148-0.438-1.586,0c-1.217,1.217-3.197,1.217-4.414,0 c-0.438-0.438-1.148-0.438-1.586,0c-0.391,0.391-1.023,0.391-1.414,0s-0.391-1.023,0-1.414c1.18-1.18,3.234-1.18,4.414,0 c0.438,0.438,1.148,0.438,1.586,0c1.217-1.217,3.197-1.217,4.414,0c0.425,0.424,1.161,0.424,1.586,0 c1.217-1.217,3.197-1.217,4.414,0c0.425,0.424,1.161,0.424,1.586,0c1.217-1.217,3.197-1.217,4.414,0 c0.438,0.438,1.148,0.438,1.586,0c1.217-1.217,3.197-1.217,4.414,0c0.438,0.438,1.148,0.438,1.586,0 c0.391-0.391,1.023-0.391,1.414,0S36.098,35.278,35.707,35.669z M54.707,35.669c-0.608,0.608-1.408,0.913-2.207,0.913 s-1.599-0.305-2.207-0.913c-0.425-0.424-1.161-0.424-1.586,0c-0.391,0.391-1.023,0.391-1.414,0s-0.391-1.023,0-1.414 c1.217-1.217,3.197-1.217,4.414,0c0.425,0.424,1.161,0.424,1.586,0c0.391-0.391,1.023-0.391,1.414,0S55.098,35.278,54.707,35.669z"></path> </g> </g></svg>